<svg id="SvgjsSvg1065" width="288" height="288" xmlns="http://www.w3.org/2000/svg" version="1.1" xmlns:xlink="http://www.w3.org/1999/xlink" xmlns:svgjs="http://svgjs.com/svgjs"><defs id="SvgjsDefs1066"></defs><g id="SvgjsG1067"><svg xmlns="http://www.w3.org/2000/svg" xmlns:xlink="http://www.w3.org/1999/xlink" viewBox="0 0 112 100" width="288" height="288"><defs><linearGradient id="b" x1="99.316%" x2="0%" y1="21.974%" y2="69.777%"><stop offset="0%" stop-color="#323232" class="stopColor2C3039 svgShape"></stop><stop offset="48.131%" stop-color="#989898" class="stopColor8A94A7 svgShape"></stop><stop offset="100%" stop-color="#323232" class="stopColor2C3039 svgShape"></stop></linearGradient><linearGradient id="c" x1="49.892%" x2="24.856%" y1=".428%" y2="100%"><stop offset="0%" stop-color="#434343" class="stopColor3B404C svgShape"></stop><stop offset="100%" stop-color="#3b3b3b" class="stopColor333843 svgShape"></stop></linearGradient><filter id="a" width="280%" height="280%" x="-90%" y="-90%" filterUnits="objectBoundingBox"><feGaussianBlur in="SourceGraphic" stdDeviation="12"></feGaussianBlur></filter><path id="d" d="M32.833 63.264c-14.9 1.866-25.108-6.384-22.797-18.428 2.31-12.043 16.264-23.319 31.166-25.184C56.103 17.786 66.31 26.036 64 38.08c-2.311 12.043-16.264 23.319-31.167 25.184z" fill="#a0a0a0" class="color000 svgShape"></path></defs><g fill="none" fill-rule="evenodd"><path fill="#cbcbcb" d="M35.521 6.938L12.04 35.843l48.939 16.136L84.46 23.073z" class="color0270D7 svgShape"></path><path fill="#808080" d="M20 65.494L35.822 74 36 26.506 20.176 18z" class="color02CBB1 svgShape"></path><g transform="translate(28 31)" fill="#a0a0a0" class="color000 svgShape"><path fill="#dddddd" fill-opacity=".48" d="M1 0h40v40H1z" filter="url(#a)" class="color1D2026 svgShape"></path><path fill="url(#b)" d="M11.261 54.752l-9.71-18.785C.096 33.152-.389 29.783.327 26.051 2.637 14.01 16.59 2.732 31.492.867 41.776-.42 49.824 3.11 53.065 9.38l9.71 18.785c-3.242-6.27-11.29-9.8-21.573-8.514C26.3 21.518 12.347 32.793 10.036 44.837c-.716 3.732-.23 7.1 1.225 9.915"></path><use fill="url(#c)" xlink:href="#d"></use></g><path fill="#7d7d7d" d="M22.991 85.677l.826-6.614L7.855 84.8l-.825 6.616z" class="color00BFFB svgShape"></path><path fill="#7d7d7d" fill-opacity=".32" d="M106.721 46.737l4.408-2.801-13.699-6.737L93.022 40z" class="color00BFFB svgShape"></path></g></svg></g></svg>