<svg id="SvgjsSvg1087" width="288" height="288" xmlns="http://www.w3.org/2000/svg" version="1.1" xmlns:xlink="http://www.w3.org/1999/xlink" xmlns:svgjs="http://svgjs.com/svgjs"><defs id="SvgjsDefs1088"></defs><g id="SvgjsG1089"><svg xmlns="http://www.w3.org/2000/svg" viewBox="0 0 108 100" width="288" height="288"><defs><linearGradient id="b" x1="17.713%" x2="77.754%" y1="0%" y2="68.424%"><stop offset="0%" stop-color="#323232" class="stopColor2C3039 svgShape"></stop><stop offset="100%" stop-color="#989898" class="stopColor8A94A7 svgShape"></stop></linearGradient><linearGradient id="c" x1="49.892%" x2="24.856%" y1=".428%" y2="100%"><stop offset="0%" stop-color="#434343" class="stopColor3B404C svgShape"></stop><stop offset="100%" stop-color="#3b3b3b" class="stopColor333843 svgShape"></stop></linearGradient><filter id="a" width="280%" height="280%" x="-90%" y="-90%" filterUnits="objectBoundingBox"><feGaussianBlur in="SourceGraphic" stdDeviation="12"></feGaussianBlur></filter></defs><g fill="none" fill-rule="evenodd"><path fill="#7d7d7d" fill-opacity=".32" d="M31.292 84.984l1.313-5.055-14.613 4.415-1.313 5.056z" class="color00BFFB svgShape"></path><path fill="#6c6c6c" d="M41.203 74.416L.222 46.516l30.541-21.314 23.908 16.277-11.69 10.84-1.706 22-.072.097z" class="color0270D7 svgShape"></path><path fill="#7d7d7d" d="M103.305 14.443l4.556-4.866-16.287-4.74-4.556 4.867z" class="color00BFFB svgShape"></path><path fill="#666666" d="M56.9 77.244L54.771 92.89 94.416 77.84l2.128-15.648z" class="color02CBB1 svgShape"></path><path fill="#212121" fill-opacity=".48" d="M31.778 38.241h40v40h-40z" filter="url(#a)" transform="translate(.222 -2.241)" class="color1D2026 svgShape"></path><path fill="url(#b)" fill-rule="nonzero" d="M88.023 31.352a2.962 2.962 0 0 0-1.296-1.359l-29.464-15.06a2.888 2.888 0 0 0-2.634.001L25.147 30.03a2.972 2.972 0 0 0-1.298 1.361l32.078 16.398 32.096-16.436z" transform="rotate(31 66.542 55.443)"></path><path fill="#323232" fill-rule="nonzero" d="M43.266 11.908a3.154 3.154 0 0 0-.96.977L23.763 43.707c-.586.974-.605 2.174-.048 3.1l16.423 27.335c.228.379.543.693.917.917l20.09-33.39-17.878-29.76z" class="color2C3039 svgShape"></path><path fill="url(#c)" d="M38.935 50.59v38.956a3.04 3.04 0 0 0 1.35-.3L70.47 74.263a2.994 2.994 0 0 0 1.67-2.697V35.608a2.98 2.98 0 0 0-.342-1.33L38.935 50.59z" transform="rotate(31 66.143 86.153)"></path></g></svg></g></svg>