<svg id="SvgjsSvg1107" width="288" height="288" xmlns="http://www.w3.org/2000/svg" version="1.1" xmlns:xlink="http://www.w3.org/1999/xlink" xmlns:svgjs="http://svgjs.com/svgjs"><defs id="SvgjsDefs1108"></defs><g id="SvgjsG1109"><svg xmlns="http://www.w3.org/2000/svg" viewBox="0 0 103 100" width="288" height="288"><defs><linearGradient id="b" x1="49.892%" x2="24.856%" y1=".428%" y2="100%"><stop offset="0%" stop-color="#434343" class="stopColor3B404C svgShape"></stop><stop offset="100%" stop-color="#3b3b3b" class="stopColor333843 svgShape"></stop></linearGradient><linearGradient id="c" x1="17.713%" x2="77.754%" y1="0%" y2="68.424%"><stop offset="0%" stop-color="#323232" class="stopColor2C3039 svgShape"></stop><stop offset="100%" stop-color="#989898" class="stopColor8A94A7 svgShape"></stop></linearGradient><filter id="a" width="280%" height="280%" x="-90%" y="-90%" filterUnits="objectBoundingBox"><feGaussianBlur in="SourceGraphic" stdDeviation="12"></feGaussianBlur></filter></defs><g fill="none" fill-rule="evenodd"><path fill="#6c6c6c" d="M48.028 64.452L.086 77.076l3.95-37.033 27.97-7.364c.1 3.076.27 8.387.512 15.934l15.485 15.72.025.119z" class="color0270D7 svgShape"></path><path fill="#666666" d="M91.767 72.042l2.455-13.396L58.895 70.67 56.44 84.067z" class="color02CBB1 svgShape"></path><path fill="#7d7d7d" d="M40.783 98.37l6.378-1.937-11.735-12.248-6.379 1.937z" class="color00BFFB svgShape"></path><path fill="#7d7d7d" fill-opacity=".32" d="M23.783 14.37l6.378-1.937L18.426.185l-6.379 1.937z" class="color00BFFB svgShape"></path><path fill="#212121" fill-opacity=".48" d="M50 43h40v40H50z" filter="url(#a)" transform="translate(-16 -12)" class="color1D2026 svgShape"></path><path fill="url(#b)" d="M51.759 16.34a.94.94 0 0 1 .922.399l23.35 40.193c.096.151.143.35.143.545-.001.629-.481 1.21-1.067 1.292l-46.872 6.553a.909.909 0 0 1-.527-.081c-.507-.237-.688-.912-.39-1.5L50.84 16.996c.076-.134.183-.262.307-.372.19-.16.403-.255.612-.283" transform="rotate(27 42.978 77.641)"></path><path fill="url(#c)" fill-rule="nonzero" d="M25.338.52c-.01-.006-.022-.01-.033-.017a.893.893 0 0 0-.174-.066c-.01-.002-.022.001-.034-.001a.925.925 0 0 0-.346-.018 1.064 1.064 0 0 0-.315.096l-.004.001c-.06.03-.12.064-.178.105a1.172 1.172 0 0 0-.107.083l-.008.008a1.495 1.495 0 0 0-.295.368L.616 48.344a1.469 1.469 0 0 0-.064.148c-.02.057-.02.113-.033.171-.012.058-.028.116-.033.174-.007.084.002.164.012.246.007.052.006.106.02.156.022.084.061.158.103.233.02.037.031.08.056.113a.877.877 0 0 0 .28.25l26.938 14.927a.868.868 0 0 1-.28-.252c-.024-.034-.037-.076-.057-.113-.04-.075-.08-.15-.103-.232-.013-.051-.013-.104-.02-.156-.01-.082-.02-.163-.012-.248.005-.058.021-.115.033-.173.024-.107.046-.216.097-.32l23.227-47.262c.076-.136.18-.265.304-.376.091-.08.19-.142.289-.19a.96.96 0 0 1 .662-.078.95.95 0 0 1 .24.084L25.337.52z" transform="rotate(27 42.028 77.95)"></path></g></svg></g></svg>