<svg id="SvgjsSvg1126" width="288" height="288" xmlns="http://www.w3.org/2000/svg" version="1.1" xmlns:xlink="http://www.w3.org/1999/xlink" xmlns:svgjs="http://svgjs.com/svgjs"><defs id="SvgjsDefs1127"></defs><g id="SvgjsG1128"><svg xmlns="http://www.w3.org/2000/svg" viewBox="0 0 98 100" width="288" height="288"><defs><linearGradient id="b" x1="49.892%" x2="24.856%" y1=".428%" y2="100%"><stop offset="0%" stop-color="#434343" class="stopColor3B404C svgShape"></stop><stop offset="100%" stop-color="#3b3b3b" class="stopColor333843 svgShape"></stop></linearGradient><linearGradient id="c" x1="17.713%" x2="77.754%" y1="0%" y2="68.424%"><stop offset="0%" stop-color="#323232" class="stopColor2C3039 svgShape"></stop><stop offset="100%" stop-color="#989898" class="stopColor8A94A7 svgShape"></stop></linearGradient><filter id="a" width="280%" height="280%" x="-90%" y="-90%" filterUnits="objectBoundingBox"><feGaussianBlur in="SourceGraphic" stdDeviation="12"></feGaussianBlur></filter></defs><g fill="none" fill-rule="evenodd"><path fill="#6c6c6c" d="M49.028 61.452L1.086 74.076l3.95-37.033 27.97-7.364c.1 3.076.27 8.387.512 15.934l15.485 15.72.025.119z" class="color0270D7 svgShape"></path><path fill="#7d7d7d" fill-opacity=".32" d="M23.725 84.328l-5.66 3.52 14.505 8.794 5.66-3.522z" class="color00BFFB svgShape"></path><path fill="#666666" d="M89.345 72.466l-1.72-15.697L52.8 80.964l1.72 15.698z" class="color02CBB1 svgShape"></path><path fill="#212121" fill-opacity=".48" d="M44 41h40v40H44z" filter="url(#a)" transform="translate(-15 -10)" class="color1D2026 svgShape"></path><path fill="url(#b)" d="M37.841 71.977L0 54.169 37.231 0z" transform="rotate(-36 55.277 18.264)"></path><path fill="url(#c)" fill-rule="nonzero" d="M73.788 71.977L37.229 54 74.4 0z" transform="scale(-1 1) rotate(36 .538 -153.515)"></path><path fill="#7d7d7d" fill-opacity=".32" d="M58.57 10.221l-1.048 5.117 14.362-5.174 1.047-5.118z" class="color00BFFB svgShape"></path></g></svg></g></svg>